<svg id="Group_3" data-name="Group 3" xmlns="http://www.w3.org/2000/svg" width="235.407" height="83.174" viewBox="0 0 235.407 83.174">
  <path id="Path_1" data-name="Path 1" d="M12.6,50.365H0V49.64c2.836,0,4.221-2.045,4.221-6.53V11.054c0-4.089-1.319-6.4-4.221-6.4V3.93H12.6c13.126,0,25.46,3.958,25.46,23.284,0,20.315-12.334,23.151-25.46,23.151m0-45.709H9.7V49.64h2.9c7.388,0,19.26.132,19.26-22.426,0-21.7-11.609-22.558-19.26-22.558" fill="#b9bcc1"/>
  <path id="Path_2" data-name="Path 2" d="M62.529,20.881a3.015,3.015,0,0,1-.923,4.221,3.117,3.117,0,0,1-4.288-.923A2.827,2.827,0,0,1,56.988,22c.33-1.319-4.946.726-6.859,5.343V45.22c0,3.628.33,3.825,2.7,4.419v.726H42.939v-.726c2.507-.726,2.639-1.055,2.639-4.419V25.037c0-2.243-.528-3.233-3.3-3.562v-.66L50.129,19.3v6.6c1.913-3.892,6.2-6.464,9.432-6.464a3.711,3.711,0,0,1,2.968,1.451" fill="#b9bcc1"/>
  <path id="Path_3" data-name="Path 3" d="M91.023,42.648c-.462,2.968-4.024,8.31-11.279,8.31-7.981,0-13.851-6.266-13.851-15.5,0-9.96,6.134-16.16,13.785-16.16,6.794,0,12.4,4.815,12.4,15.237H70.972c.132,10.091,4.419,13.785,9.959,14.049,4.222.2,8.509-2.771,9.564-6.134Zm-3.43-8.9c0-10.223-5.079-13.719-7.981-13.719-3.76,0-8.64,4.485-8.64,13.719Z" fill="#b9bcc1"/>
  <path id="Path_4" data-name="Path 4" d="M109.1,50.959c-7.981,0-11.345-2.441-11.345-2.441v-9.3h.66c.264,5.277,1.649,11.015,10.685,11.015,8.113,0,6.4-7.585,1.385-10.883l-6.662-4.023c-6.266-4.353-7.585-7.651-5.408-12,0,0,1.715-4.023,8.442-4.023,7.586,0,10.752,2.111,10.752,2.111v8.376h-.66c-.264-4.617-1.979-9.762-10.092-9.762-7.189,0-6.991,6.728-1.253,10.356l6.662,4.156c6,3.693,7.849,8.9,4.749,13.323,0,0-2.111,3.1-7.915,3.1" fill="#b9bcc1"/>
  <path id="Path_5" data-name="Path 5" d="M136.6,50.959c-7.98,0-11.344-2.441-11.344-2.441v-9.3h.659c.264,5.277,1.649,11.015,10.685,11.015,8.114,0,6.4-7.585,1.385-10.883l-6.661-4.023c-6.266-4.353-7.586-7.651-5.409-12,0,0,1.715-4.023,8.443-4.023,7.585,0,10.751,2.111,10.751,2.111v8.376h-.66c-.264-4.617-1.978-9.762-10.091-9.762-7.19,0-6.992,6.728-1.254,10.356l6.663,4.156c6,3.693,7.848,8.9,4.748,13.323,0,0-2.11,3.1-7.915,3.1" fill="#b9bcc1"/>
  <path id="Path_6" data-name="Path 6" d="M205.2,49.639v.726H189.828v-.726c2.771,0,4.749-1.055,4.749-6.86V6.172l-15.1,44.786h-.725L160.411,10.2V34.073c0,11.411,1.714,15.566,8.244,15.566v.726H150.649v-.726c7.255,0,9.036-4.419,9.036-15.566V8.943a7.8,7.8,0,0,0-7.321-4.288V3.93h11.411l17.677,39.311L194.577,3.93h10.29v.725c-2.837,0-5.079,1.122-5.079,5.8V42.779c0,5.805,2.572,6.86,5.409,6.86" fill="#2978f9"/>
  <path id="Path_7" data-name="Path 7" d="M234.352,42.648c-.462,2.968-4.024,8.31-11.279,8.31-7.982,0-13.852-6.266-13.852-15.5,0-9.96,6.134-16.16,13.786-16.16,6.794,0,12.4,4.815,12.4,15.237H214.3c.132,10.091,4.42,13.785,9.96,14.049,4.221.2,8.509-2.771,9.564-6.134Zm-3.43-8.9c0-10.223-5.079-13.719-7.981-13.719-3.76,0-8.641,4.485-8.641,13.719Z" fill="#2978f9"/>
  <path id="Path_8" data-name="Path 8" d="M146.625,11.479,139.508,0c-.141,0-.129.007-.189.107-.245.407-1.435,3.03-1.718,3.064a37.025,37.025,0,0,0-10.909-2.3c-13.983-.65-26.4,7.791-34.7,18.352.192.041.417-.273.557-.4,10.428-9.451,22.971-16.865,37.575-12.406a25.893,25.893,0,0,1,4.563,1.813c.088.061.177.085.2.214l-1.781,3.619Z" fill="#2978f9"/>
  <path id="Path_9" data-name="Path 9" d="M43.134,77.412v-15.5c1.946,0,4.046-.022,5.992,0a5.135,5.135,0,1,1,0,10.259H44.24v5.241Zm5.992-6.28a4.1,4.1,0,1,0,0-8.2H44.24v8.2Z" fill="#ff7900"/>
  <path id="Path_10" data-name="Path 10" d="M61.71,77.567a5.517,5.517,0,1,1,5.55-5.505,5.35,5.35,0,0,1-5.55,5.505m.022-.973A4.33,4.33,0,0,0,66.2,72.062a4.532,4.532,0,1,0-4.466,4.532" fill="#ff7900"/>
  <path id="Path_11" data-name="Path 11" d="M77.522,73.145v-6.39h1.017v6.39a3.186,3.186,0,0,0,3.206,3.471c4.776,0,3.272-6.744,2.056-9.9h1.017c1.327,3.449,2.808,10.591-2.7,10.767a3.975,3.975,0,0,1-4.068-2.41,3.722,3.722,0,0,1-3.715,2.454,3.979,3.979,0,0,1-4.112-4.355V68.9c.022-1.062-.155-1.659-1.46-1.482v-.8c1.88-.332,2.521.353,2.521,2.234v4.289c0,2.188,1.238,3.471,3.117,3.471,1.968,0,3.118-1.437,3.118-3.471" fill="#ff7900"/>
  <path id="Path_12" data-name="Path 12" d="M97.8,76.859a9.086,9.086,0,0,1-3.626.729c-3.891,0-6.146-2.41-5.726-6.3a5.129,5.129,0,0,1,5.461-4.776c2.1,0,4.621,1.061,4.378,3.494-.177,2.189-2.41,2.963-4.289,2.963a7.641,7.641,0,0,1-4.577-1.283c-.288,3.051,1.614,4.908,4.8,4.908a8.906,8.906,0,0,0,3.581-.751Zm-3.935-4.865c1.393,0,3.228-.4,3.338-2.034.177-1.79-1.769-2.476-3.316-2.476-2.233-.022-3.891,1.061-4.333,3.25a6.94,6.94,0,0,0,4.311,1.26" fill="#ff7900"/>
  <path id="Path_13" data-name="Path 13" d="M105.7,66.534a4.888,4.888,0,0,1,2.719.84l-.375.928a4.1,4.1,0,0,0-2.433-.73,2.991,2.991,0,0,0-3.117,2.942v6.9h-1.061v-8.2c0-1.039-.022-1.7-1.371-1.525l-.044-.907c1.7-.287,2.432.154,2.432,1.393a3.365,3.365,0,0,1,3.25-1.636" fill="#ff7900"/>
  <path id="Path_14" data-name="Path 14" d="M118.766,76.859a9.086,9.086,0,0,1-3.626.729c-3.891,0-6.146-2.41-5.726-6.3a5.129,5.129,0,0,1,5.461-4.776c2.1,0,4.621,1.061,4.378,3.494-.177,2.189-2.41,2.963-4.288,2.963a7.642,7.642,0,0,1-4.578-1.283c-.288,3.051,1.614,4.908,4.8,4.908a8.906,8.906,0,0,0,3.581-.751Zm-3.935-4.865c1.393,0,3.228-.4,3.338-2.034.177-1.79-1.768-2.476-3.315-2.476-2.234-.022-3.892,1.061-4.333,3.25a6.937,6.937,0,0,0,4.31,1.26" fill="#ff7900"/>
  <path id="Path_15" data-name="Path 15" d="M131.351,61.139c0,4.665-.023,9.043-.023,13.664,0,1.127-.022,1.813,1.371,1.636l.045.972c-1.747.266-2.322-.4-2.322-1.967v-.531a4.357,4.357,0,0,1-4.2,2.631c-3.206,0-4.842-2.587-4.842-5.571,0-3.008,1.57-5.661,4.82-5.661a4.255,4.255,0,0,1,4.135,2.432V61.139ZM126.4,76.549c2.477,0,3.914-1.923,3.914-4.576,0-2.521-1.216-4.732-3.914-4.732-2.742,0-3.957,2.189-3.957,4.732,0,2.476,1.37,4.576,3.957,4.576" fill="#ff7900"/>
  <path id="Path_16" data-name="Path 16" d="M141.15,61.382h1V69.1a4.282,4.282,0,0,1,4.068-2.543c2.565,0,4.975,1.814,4.864,5.639-.11,3.648-2.52,5.483-5.815,5.483a9.714,9.714,0,0,1-4.112-1Zm1.039,14.636a7.915,7.915,0,0,0,3.162.73,4.316,4.316,0,0,0,4.643-4.554c.066-3.184-1.636-4.709-3.958-4.709-2.609,0-3.847,2.5-3.847,4.709Z" fill="#ff7900"/>
  <path id="Path_17" data-name="Path 17" d="M154.883,81.148c3.118,1.791,8.048,1.658,8.048-3.051V75.068a4.168,4.168,0,0,1-4.024,2.609c-2.852,0-4.687-1.681-4.687-5.285V69.12c0-1.15-.089-1.747-1.526-1.5v-.84c1.968-.375,2.609.443,2.609,2.234v3.382c0,3.029,1.46,4.334,3.759,4.334,2.741,0,3.825-2.653,3.825-4.953V66.755h1.038V78.1c0,5.306-5.372,6.147-9.175,3.935Z" fill="#ff7900"/>
  <path id="Path_18" data-name="Path 18" d="M171.316,62.952V61.935h11.276v1.017h-5.085v14.46H176.4V62.952Z" fill="#ff7900"/>
  <path id="Path_19" data-name="Path 19" d="M191.04,61.714c3.117,0,5.7,1.305,6.81,4.4h-1.128c-1.039-2.409-3.051-3.36-5.7-3.36-3.958.066-6.522,2.985-6.522,6.877,0,3.957,2.5,6.942,6.522,6.942a6.162,6.162,0,0,0,6.412-6.125h-6.1v-.972h7.208a9.683,9.683,0,0,1-.685,3.891,7,7,0,0,1-6.832,4.267c-4.489,0-7.628-3.338-7.628-8a7.53,7.53,0,0,1,7.65-7.916" fill="#ff7900"/>
  <path id="Path_20" data-name="Path 20" d="M208.467,77.654a7.57,7.57,0,0,1-7.8-7.981,7.828,7.828,0,1,1,15.654,0,7.58,7.58,0,0,1-7.849,7.981m0-1.038a6.587,6.587,0,0,0,6.721-6.943,6.7,6.7,0,1,0-13.4,0,6.565,6.565,0,0,0,6.677,6.943" fill="#ff7900"/>
  <path id="Path_21" data-name="Path 21" d="M226.513,77.654a7.57,7.57,0,0,1-7.805-7.981,7.828,7.828,0,1,1,15.654,0,7.58,7.58,0,0,1-7.849,7.981m0-1.038a6.588,6.588,0,0,0,6.722-6.943,6.7,6.7,0,1,0-13.4,0,6.565,6.565,0,0,0,6.677,6.943" fill="#ff7900"/>
</svg>
